<?xml version="1.0" encoding="UTF-8" standalone="no"?>
<svg
   xmlns:dc="http://purl.org/dc/elements/1.1/"
   xmlns:cc="http://creativecommons.org/ns#"
   xmlns:rdf="http://www.w3.org/1999/02/22-rdf-syntax-ns#"
   xmlns:svg="http://www.w3.org/2000/svg"
   xmlns="http://www.w3.org/2000/svg"
   xmlns:sodipodi="http://sodipodi.sourceforge.net/DTD/sodipodi-0.dtd"
   xmlns:inkscape="http://www.inkscape.org/namespaces/inkscape"
   width="188.61mm"
   height="188.61mm"
   viewBox="0 0 188.61 188.61"
   version="1.1"
   id="svg8"
   inkscape:version="1.0.2 (e86c870879, 2021-01-15, custom)"
   sodipodi:docname="logo.svg">
  <defs
     id="defs2" />
  <sodipodi:namedview
     id="base"
     pagecolor="#ffffff"
     bordercolor="#666666"
     borderopacity="1.0"
     inkscape:pageopacity="0.0"
     inkscape:pageshadow="2"
     inkscape:zoom="0.7"
     inkscape:cx="375.35796"
     inkscape:cy="437.24668"
     inkscape:document-units="mm"
     inkscape:current-layer="layer1"
     inkscape:document-rotation="0"
     showgrid="false"
     inkscape:snap-page="true"
     inkscape:snap-bbox="true"
     inkscape:bbox-nodes="true"
     inkscape:window-width="1804"
     inkscape:window-height="1052"
     inkscape:window-x="108"
     inkscape:window-y="-8"
     inkscape:window-maximized="1" />
  <metadata
     id="metadata5">
    <rdf:RDF>
      <cc:Work
         rdf:about="">
        <dc:format>image/svg+xml</dc:format>
        <dc:type
           rdf:resource="http://purl.org/dc/dcmitype/StillImage" />
        <dc:title></dc:title>
      </cc:Work>
    </rdf:RDF>
  </metadata>
  <g
     inkscape:label="Calque 1"
     inkscape:groupmode="layer"
     id="layer1">
    <path
       id="path890"
       style="fill:#010101;stroke:none;stroke-width:0.264583"
       d="M 94.304833,0 A 94.305053,94.305053 0 0 0 0,94.304838 94.305053,94.305053 0 0 0 94.304833,188.61019 94.305053,94.305053 0 0 0 188.61019,94.304838 94.305053,94.305053 0 0 0 94.304833,0 Z M 67.093061,32.851224 c 1.167207,-0.03477 2.364285,0.416129 3.2644,1.324984 3.109119,-2.323251 4.551886,-0.964681 7.672917,0.109554 2.092589,0.720246 5.086082,1.360897 5.820833,3.859196 1.261001,-0.300197 3.0627,-0.594073 4.204912,0.19637 2.882368,1.994641 0.606007,6.342809 -1.823662,7.476545 0.653259,2.394665 1.413626,4.604544 0.971515,7.14375 -0.254529,1.46262 -1.250952,2.752993 -1.389062,4.233334 -0.15558,1.666345 0.800711,3.277923 0.657841,5.027083 -0.155048,1.898121 -1.872702,3.052498 -2.128551,4.7625 -0.191291,1.280319 1.073144,2.587892 1.024744,3.96875 -0.0643,1.834356 -1.559364,2.847184 -1.921849,4.497916 -0.639225,2.910682 1.874139,6.077744 0.933278,9.260417 1.990191,0.17489 3.620289,1.363453 5.55625,1.728578 2.274346,0.429155 5.111226,1.042268 7.408336,1.154452 1.23825,0.06059 2.465641,-0.415711 3.704157,-0.163299 1.27583,0.259821 2.21484,1.325902 3.43959,1.749764 1.69307,0.586052 3.56843,0.445998 5.29166,1.0511 1.71662,0.602721 3.08557,1.890223 4.7625,2.489769 4.74001,1.694127 9.40286,2.57774 12.13415,7.600053 1.91056,3.51261 1.16962,7.45014 1.68,11.1125 0.20399,1.46421 1.04565,2.78367 1.35495,4.23333 0.68763,3.22474 1.09657,8.38994 0.58963,11.64167 -0.43312,2.77866 -0.97298,5.77373 -1.78129,8.46666 -0.35823,1.19406 -1.39523,2.1606 -1.39423,3.43958 0.002,2.86704 0.77452,6.47306 -0.0346,9.25939 -0.35798,1.23402 -1.63148,1.75486 -2.07016,2.91558 -0.82126,2.17329 -0.20281,4.32934 -3.33468,4.70928 -3.66183,0.44424 -3.51043,-2.47344 -4.47828,-4.978 -0.88079,-2.27911 -2.33245,-4.94744 -2.39675,-7.40833 -0.0521,-1.98676 -0.2671,-4.11506 -0.1695,-6.08542 0.0474,-0.95566 0.45251,-2.21853 -0.14624,-3.08663 -0.50853,-0.73766 -1.82067,-0.42042 -2.59881,-0.61753 -0.49503,2.07962 0.0172,4.01029 -0.0341,6.08541 -0.0844,3.42398 -0.84268,6.52437 -1.68672,9.78959 -0.33496,1.29488 0.15335,2.7336 -0.83302,3.82819 -1.25438,1.39197 -4.85867,1.96752 -5.71644,-0.13539 -0.39556,-0.96996 -0.19571,-2.14657 -0.48886,-3.16364 -1.53194,-5.316 -2.45071,-10.101 -3.147096,-15.61041 l -3.968751,-1.05833 c -0.49186,7.2501 -3.00657,13.77764 -5.595524,20.37291 -0.994029,2.5318 -5.053406,4.07606 -6.918441,1.55908 -1.17502,-1.58591 -0.332248,-3.25955 -0.289388,-4.99866 0.0339,-1.38165 -0.938371,-2.6035 -1.139981,-3.96875 -0.404291,-2.73711 1.245187,-6.53892 -0.873331,-8.73125 -0.65114,5.04216 -0.658704,10.70399 -1.944585,15.61041 -0.486561,1.85686 -2.136978,3.23685 -4.136699,2.83601 -2.470949,-0.49557 -3.383799,-7.05452 -4.176488,-9.18601 -0.450591,-1.21152 -0.243178,-2.54978 -0.693499,-3.70416 -0.47783,-1.22475 -1.421675,-2.08756 -1.661396,-3.43959 -0.637378,-3.59356 -0.357245,-7.29217 -1.342554,-10.84791 -0.518062,-1.86849 -1.913408,-3.01969 -2.504757,-4.7625 -0.46064,-1.3581 0.02357,-2.98195 -0.561205,-4.2292 -0.563833,-1.20279 -1.789216,-1.82711 -2.145607,-3.17913 -0.407191,-1.54464 0.04835,-3.20093 -0.284737,-4.7625 -0.413541,-1.93833 -1.471318,-3.50731 -1.445389,-5.55625 0.0222,-1.78646 0.825799,-3.52611 0.781346,-5.29167 -0.0489,-1.950246 -1.100844,-3.789096 -0.995804,-5.82083 0.11906,-2.301346 1.332219,-4.355039 1.47588,-6.614584 0.129648,-2.039143 -0.733753,-4.006053 -0.416512,-6.085416 0.243149,-1.594641 1.373269,-2.899569 1.672248,-4.497917 0.366451,-1.959237 -0.255682,-4.079078 -0.117305,-6.085417 0.23256,-3.378461 0.916029,-6.385718 0.769979,-9.789583 -2.08227,0.257443 -4.378589,0.150919 -6.35,-0.65474 -7.66823,-3.133987 -4.288361,-14.241142 0.79375,-18.130676 v -0.264583 c -1.977231,-1.738736 -1.443307,-4.702833 1.058334,-5.556249 -0.404291,-2.834402 2.130689,-6.421965 4.7625,-3.439584 h 0.264583 c 0.78105,-1.034375 1.918391,-1.554797 3.0856,-1.589567 z m 6.400641,1.504818 c -1.21144,0.05057 -1.696418,1.293096 -2.881992,1.530139 -0.855919,0.171079 -1.616057,-0.720136 -2.370916,-0.988053 -2.216681,-0.786739 -3.482969,0.410443 -3.96875,2.45308 1.95924,0.666091 2.686019,2.725935 4.498952,3.530533 1.12315,0.498451 2.686769,-0.335156 3.618899,0.357603 0.903549,0.671512 0.51617,2.077508 1.467609,2.794661 1.048012,0.78985 3.185761,-0.410633 3.785299,0.796851 0.343961,0.692092 -0.02321,1.539637 0.28267,2.251025 0.27913,0.648864 1.301562,0.916003 1.299662,1.681551 -0.003,1.180542 -1.680051,2.173176 -2.229321,3.139858 -1.046427,1.840971 0.94328,6.139656 -2.40502,5.027083 -2.244989,2.946136 -5.599117,4.752975 -9.260416,5.291667 0.76649,3.715544 -0.09178,6.645545 -0.254249,10.31875 -0.0968,2.191811 0.547643,4.446852 0.167431,6.614583 -0.29554,1.685925 -1.510078,3.049058 -1.715656,4.7625 -0.21934,1.827477 0.837044,3.497792 0.654222,5.291667 -0.197379,1.934636 -1.397286,3.577695 -1.487247,5.55625 -0.110061,2.425704 0.516766,4.741874 0.516766,7.14375 0,1.75366 -0.638734,3.54726 -0.406694,5.29166 0.220401,1.65735 1.049364,3.12685 1.344102,4.7625 0.249513,1.38271 -0.130059,2.88106 0.237712,4.23334 0.335489,1.23402 1.483664,2.01533 1.978173,3.175 0.516462,1.21152 -0.12051,2.46379 0.236681,3.70416 0.561707,1.94998 1.95018,3.55124 2.460831,5.55625 0.905669,3.55442 0.862571,7.30091 1.740461,10.84792 0.340521,1.37636 1.461616,2.33204 1.794724,3.70416 0.472541,1.94708 -0.370906,5.65329 2.787425,5.71439 1.92405,0.0373 2.91651,-2.04091 3.384291,-3.59772 1.260739,-4.19735 1.527431,-9.3927 2.094963,-13.75833 0.122502,-0.94351 -0.852329,-5.81907 0.346231,-5.46427 2.47174,0.73157 2.408938,5.1457 2.186945,7.05177 -0.278336,2.39342 0.878639,4.54793 1.17099,6.87916 0.479431,3.82138 -1.532207,11.00196 5.148522,9.67745 1.91108,-0.37915 2.224311,-2.23074 2.548161,-3.85661 0.79455,-3.98991 1.24408,-8.12217 1.62058,-12.17083 0.0762,-0.81941 0.09,-5.34463 1.36632,-5.12476 1.69704,0.29237 0.675,3.18627 3.15123,3.48816 1.674017,0.204 3.124467,-0.70776 4.762497,-0.69556 1.36498,0.0101 2.58207,0.89671 3.96875,0.6382 2.25663,-0.42095 6.1898,-1.35684 8.17418,0.43202 3.68644,3.32343 0.99564,9.88895 2.96468,13.96193 0.85485,1.76875 0.51056,4.40441 3.40961,3.87419 5.53402,-1.0123 3.47922,-9.10553 3.58479,-12.87002 0.10186,-3.63564 2.28394,-7.52449 2.88613,-11.1125 0.29369,-1.74969 -0.84249,-3.52159 -0.89969,-5.29166 -0.1188,-3.68433 -0.79272,-7.16942 -1.04593,-10.84792 -0.19791,-2.87206 -0.16554,-6.41085 -1.63504,-8.99583 -2.76039,-4.856156 -7.49251,-5.559322 -12.14706,-7.170106 -1.71767,-0.594518 -3.24433,-1.866042 -5.02709,-2.25154 -1.21549,-0.262729 -2.48681,0.05842 -3.70416,-0.163298 -1.36709,-0.249238 -2.09418,-1.767441 -3.43959,-1.917195 -1.104109,-0.123034 -2.276727,0.44921 -3.439577,0.365868 -3.62743,-0.25982 -7.584545,-1.149865 -10.847916,-2.679422 -1.134271,-0.531815 -2.770573,-0.760418 -3.544487,-1.829863 -0.67759,-0.93689 -0.254889,-2.095286 -0.183452,-3.139861 0.170394,-2.488933 -1.778246,-5.166251 -1.345652,-7.408333 0.309557,-1.604957 2.038196,-2.552436 2.122866,-4.233333 0.0738,-1.461823 -1.280375,-2.341298 -1.375625,-3.704167 -0.12673,-1.80975 2.246659,-3.008577 2.587437,-4.7625 0.34925,-1.798373 -1.232492,-3.262839 -1.111043,-5.027083 0.227801,-3.307289 2.608514,-5.076558 1.665533,-8.73125 -0.600601,-2.327537 -2.832065,-2.207631 -3.705717,-4.234365 -0.929478,-2.156328 1.05046,-3.353668 1.18804,-5.285465 0.0833,-1.169992 -2.956406,-3.069361 -3.970816,-3.444752 -1.591471,1.972869 -2.474915,-0.678541 -4.233333,-1.085206 -0.206873,-0.04785 -0.394862,-0.06508 -0.567926,-0.05788 z M 62.01585,35.235058 c -1.378088,-0.02567 -1.119336,2.122435 -0.545703,2.828251 0.344754,0.424391 0.809326,0.777317 1.214397,1.139981 0.66067,-0.736044 0.93295,-3.791792 -0.530201,-3.95893 -0.0479,-0.0055 -0.09404,-0.0085 -0.138493,-0.0093 z m -2.241722,3.968232 c -1.47003,0.741442 -1.405464,1.981309 -1.058334,3.439584 l 2.38125,-1.852084 v -0.264583 z m 25.925549,0.621668 c -0.15753,-0.0014 -0.332301,0.01575 -0.52555,0.05374 -2.367486,0.465534 -4.314814,5.035521 -0.79375,4.488098 2.138911,-0.332481 3.682371,-4.520573 1.3193,-4.541843 z M 65.330378,39.99704 c -1.559992,0.281543 -2.780604,1.210191 -3.964617,2.232941 -3.567377,3.081334 -9.428591,11.799503 -4.50205,16.023309 0.10927,-1.386417 -0.9184,-3.944366 -0.472839,-5.010028 0.761209,-1.820757 7.746571,0.463978 3.909322,2.385383 -0.504561,0.252677 -1.040152,0.378597 -1.5844,0.507978 l -0.264583,3.439584 c 4.704289,0.912286 10.913623,0.362831 14.184664,-3.707784 1.65762,-2.062691 1.893271,-4.605448 3.807003,-6.610966 v -0.264584 l -1.058334,-2.38125 c -2.32701,-0.20444 -3.918217,-1.411075 -4.497916,-3.704166 -2.429942,-0.0016 -4.36589,-0.622507 -5.55625,-2.910417 z m -5.648235,5.659604 c 1.189384,-0.0065 1.428247,2.033453 0.08165,2.322338 -1.34488,0.288502 -1.676511,-1.842466 -0.480592,-2.250509 0.142677,-0.04868 0.275903,-0.07103 0.398942,-0.07183 z m 9.791649,3.181202 c 1.2871,0.01634 1.756598,2.109362 0.326081,2.588988 -1.634858,0.548163 -2.387576,-2.01036 -0.750859,-2.523361 0.149448,-0.04684 0.291635,-0.06723 0.424778,-0.06563 z m 40.170158,84.816524 c -0.046,0.001 -0.0938,0.006 -0.14366,0.0139 -0.82021,0.13228 -1.51565,0.64736 -2.36575,0.73225 -1.29911,0.12962 -4.40251,-1.62784 -5.12165,0.12661 -0.31326,0.76412 0.0589,2.02398 0.10387,2.83652 0.16325,2.92947 0.90091,6.44473 1.70894,9.26042 0.33258,1.15888 1.1337,2.44336 2.51509,2.26239 4.01346,-0.52599 4.00292,-8.23826 4.20956,-11.25823 0.0628,-0.91555 0.51854,-4.01581 -0.9064,-3.97391 z m -24.998989,16.67391 c 0,1.08189 -0.396425,3.17935 0.312126,4.07418 1.86585,2.35559 4.205372,-1.86252 4.450374,-3.28043 -2.0193,0.29132 -2.911211,0.0664 -4.7625,-0.79375 z m 24.341659,0 -4.23333,1.05834 c 0.12091,3.69544 3.87456,1.53856 4.23333,-1.05834 z m -30.956242,0.26459 -4.497917,0.26458 c 0.35084,1.09722 0.507124,3.0477 1.436605,3.80494 2.405589,1.96003 3.060518,-2.79502 3.061312,-4.06952 z m 41.010412,1.5875 c 0.50376,3.34301 3.80921,3.15569 4.49792,0 z"
       inkscape:export-xdpi="96"
       inkscape:export-ydpi="96" />
  </g>
</svg>
